<mxfile host="app.diagrams.net" modified="2022-08-10T07:46:23.662Z" agent="5.0 (Macintosh; Intel Mac OS X 10_15_7) AppleWebKit/537.36 (KHTML, like Gecko) Chrome/104.0.0.0 Safari/537.36" etag="vSRAH-L21-kO6EDdtgM3" version="20.2.3" type="github">
  <diagram id="syfpTkt5uS4SI4TtbmlW" name="第 1 页">
    <mxGraphModel dx="925" dy="1241" grid="1" gridSize="10" guides="1" tooltips="1" connect="1" arrows="1" fold="1" page="1" pageScale="1" pageWidth="827" pageHeight="1169" math="0" shadow="0">
      <root>
        <mxCell id="0" />
        <mxCell id="1" parent="0" />
        <mxCell id="NoCVoIsP2FQB-OOEhX7j-3" value="" style="edgeStyle=orthogonalEdgeStyle;rounded=0;orthogonalLoop=1;jettySize=auto;html=1;entryX=0;entryY=0.5;entryDx=0;entryDy=0;" edge="1" parent="1" source="NoCVoIsP2FQB-OOEhX7j-1" target="NoCVoIsP2FQB-OOEhX7j-2">
          <mxGeometry relative="1" as="geometry">
            <mxPoint x="490" y="290" as="targetPoint" />
          </mxGeometry>
        </mxCell>
        <mxCell id="NoCVoIsP2FQB-OOEhX7j-5" value="" style="edgeStyle=orthogonalEdgeStyle;rounded=0;orthogonalLoop=1;jettySize=auto;html=1;entryX=0;entryY=0.5;entryDx=0;entryDy=0;" edge="1" parent="1" source="NoCVoIsP2FQB-OOEhX7j-1" target="NoCVoIsP2FQB-OOEhX7j-4">
          <mxGeometry relative="1" as="geometry" />
        </mxCell>
        <mxCell id="NoCVoIsP2FQB-OOEhX7j-7" value="" style="edgeStyle=orthogonalEdgeStyle;rounded=0;orthogonalLoop=1;jettySize=auto;html=1;entryX=0;entryY=0.5;entryDx=0;entryDy=0;" edge="1" parent="1" source="NoCVoIsP2FQB-OOEhX7j-1" target="NoCVoIsP2FQB-OOEhX7j-6">
          <mxGeometry relative="1" as="geometry" />
        </mxCell>
        <mxCell id="NoCVoIsP2FQB-OOEhX7j-1" value="&lt;pre style=&quot;background-color:#2b2b2b;color:#a9b7c6;font-family:&#39;JetBrains Mono&#39;,monospace;font-size:10.5pt;&quot;&gt;&lt;span style=&quot;color:#ffc66d;&quot;&gt;AnnotationConfigApplicationContext&lt;/span&gt;&lt;/pre&gt;" style="rounded=1;whiteSpace=wrap;html=1;" vertex="1" parent="1">
          <mxGeometry x="30" y="330" width="310" height="60" as="geometry" />
        </mxCell>
        <mxCell id="NoCVoIsP2FQB-OOEhX7j-9" value="" style="edgeStyle=orthogonalEdgeStyle;rounded=0;orthogonalLoop=1;jettySize=auto;html=1;entryX=0;entryY=0.5;entryDx=0;entryDy=0;" edge="1" parent="1" source="NoCVoIsP2FQB-OOEhX7j-2" target="NoCVoIsP2FQB-OOEhX7j-8">
          <mxGeometry relative="1" as="geometry" />
        </mxCell>
        <mxCell id="NoCVoIsP2FQB-OOEhX7j-21" value="" style="edgeStyle=orthogonalEdgeStyle;rounded=0;orthogonalLoop=1;jettySize=auto;html=1;" edge="1" parent="1" source="NoCVoIsP2FQB-OOEhX7j-2" target="NoCVoIsP2FQB-OOEhX7j-20">
          <mxGeometry relative="1" as="geometry" />
        </mxCell>
        <mxCell id="NoCVoIsP2FQB-OOEhX7j-25" value="" style="edgeStyle=orthogonalEdgeStyle;rounded=0;orthogonalLoop=1;jettySize=auto;html=1;entryX=0;entryY=0.5;entryDx=0;entryDy=0;" edge="1" parent="1" source="NoCVoIsP2FQB-OOEhX7j-2" target="NoCVoIsP2FQB-OOEhX7j-24">
          <mxGeometry relative="1" as="geometry" />
        </mxCell>
        <mxCell id="NoCVoIsP2FQB-OOEhX7j-29" style="edgeStyle=orthogonalEdgeStyle;rounded=0;orthogonalLoop=1;jettySize=auto;html=1;exitX=1;exitY=0.5;exitDx=0;exitDy=0;entryX=0;entryY=0.5;entryDx=0;entryDy=0;" edge="1" parent="1" source="NoCVoIsP2FQB-OOEhX7j-2" target="NoCVoIsP2FQB-OOEhX7j-28">
          <mxGeometry relative="1" as="geometry" />
        </mxCell>
        <mxCell id="NoCVoIsP2FQB-OOEhX7j-2" value="this()&lt;br&gt;初始化" style="whiteSpace=wrap;html=1;rounded=1;" vertex="1" parent="1">
          <mxGeometry x="420" y="230" width="120" height="60" as="geometry" />
        </mxCell>
        <mxCell id="NoCVoIsP2FQB-OOEhX7j-4" value="register&lt;br&gt;注册配置类" style="whiteSpace=wrap;html=1;rounded=1;" vertex="1" parent="1">
          <mxGeometry x="420" y="550" width="120" height="60" as="geometry" />
        </mxCell>
        <mxCell id="NoCVoIsP2FQB-OOEhX7j-6" value="refresh&lt;br&gt;刷新容器" style="whiteSpace=wrap;html=1;rounded=1;" vertex="1" parent="1">
          <mxGeometry x="420" y="660" width="120" height="60" as="geometry" />
        </mxCell>
        <mxCell id="NoCVoIsP2FQB-OOEhX7j-17" value="" style="edgeStyle=orthogonalEdgeStyle;rounded=0;orthogonalLoop=1;jettySize=auto;html=1;" edge="1" parent="1" source="NoCVoIsP2FQB-OOEhX7j-8" target="NoCVoIsP2FQB-OOEhX7j-16">
          <mxGeometry relative="1" as="geometry" />
        </mxCell>
        <mxCell id="NoCVoIsP2FQB-OOEhX7j-8" value="&lt;span style=&quot;caret-color: rgb(44, 62, 80); color: rgb(44, 62, 80); font-family: -apple-system, BlinkMacSystemFont, &amp;quot;Segoe UI&amp;quot;, Roboto, Oxygen, Ubuntu, Cantarell, &amp;quot;Fira Sans&amp;quot;, &amp;quot;Droid Sans&amp;quot;, &amp;quot;Helvetica Neue&amp;quot;, sans-serif; font-size: 16px; text-align: left; text-size-adjust: auto; background-color: rgb(255, 255, 255);&quot;&gt;ConfigurationClassPostProcessor&lt;/span&gt;" style="whiteSpace=wrap;html=1;rounded=1;" vertex="1" parent="1">
          <mxGeometry x="620" y="150" width="280" height="60" as="geometry" />
        </mxCell>
        <mxCell id="NoCVoIsP2FQB-OOEhX7j-12" value="" style="edgeStyle=orthogonalEdgeStyle;rounded=0;orthogonalLoop=1;jettySize=auto;html=1;" edge="1" parent="1" source="NoCVoIsP2FQB-OOEhX7j-10" target="NoCVoIsP2FQB-OOEhX7j-11">
          <mxGeometry relative="1" as="geometry" />
        </mxCell>
        <mxCell id="NoCVoIsP2FQB-OOEhX7j-10" value="&lt;span style=&quot;font-weight: 600; caret-color: rgb(44, 62, 80); color: rgb(44, 62, 80); font-family: -apple-system, BlinkMacSystemFont, &amp;quot;Segoe UI&amp;quot;, Roboto, Oxygen, Ubuntu, Cantarell, &amp;quot;Fira Sans&amp;quot;, &amp;quot;Droid Sans&amp;quot;, &amp;quot;Helvetica Neue&amp;quot;, sans-serif; font-size: 16px; text-align: left; text-size-adjust: auto;&quot;&gt;BeanPostProcessor&lt;/span&gt;" style="rounded=1;whiteSpace=wrap;html=1;" vertex="1" parent="1">
          <mxGeometry x="70" y="30" width="190" height="50" as="geometry" />
        </mxCell>
        <mxCell id="NoCVoIsP2FQB-OOEhX7j-11" value="&lt;span style=&quot;caret-color: rgb(44, 62, 80); color: rgb(44, 62, 80); font-family: -apple-system, BlinkMacSystemFont, &amp;quot;Segoe UI&amp;quot;, Roboto, Oxygen, Ubuntu, Cantarell, &amp;quot;Fira Sans&amp;quot;, &amp;quot;Droid Sans&amp;quot;, &amp;quot;Helvetica Neue&amp;quot;, sans-serif; font-size: 16px; text-align: start; text-size-adjust: auto; background-color: rgb(255, 255, 255);&quot;&gt;干预Bean的生产过程&lt;/span&gt;" style="whiteSpace=wrap;html=1;rounded=1;" vertex="1" parent="1">
          <mxGeometry x="375" y="27.5" width="185" height="55" as="geometry" />
        </mxCell>
        <mxCell id="NoCVoIsP2FQB-OOEhX7j-13" value="" style="edgeStyle=orthogonalEdgeStyle;rounded=0;orthogonalLoop=1;jettySize=auto;html=1;" edge="1" parent="1" source="NoCVoIsP2FQB-OOEhX7j-14" target="NoCVoIsP2FQB-OOEhX7j-15">
          <mxGeometry relative="1" as="geometry" />
        </mxCell>
        <mxCell id="NoCVoIsP2FQB-OOEhX7j-14" value="&lt;span style=&quot;font-weight: 600; caret-color: rgb(44, 62, 80); color: rgb(44, 62, 80); font-family: -apple-system, BlinkMacSystemFont, &amp;quot;Segoe UI&amp;quot;, Roboto, Oxygen, Ubuntu, Cantarell, &amp;quot;Fira Sans&amp;quot;, &amp;quot;Droid Sans&amp;quot;, &amp;quot;Helvetica Neue&amp;quot;, sans-serif; font-size: 16px; text-align: start; text-size-adjust: auto;&quot;&gt;BeanFactoryPostProcessor&lt;/span&gt;" style="rounded=1;whiteSpace=wrap;html=1;" vertex="1" parent="1">
          <mxGeometry x="70" y="97.5" width="240" height="52.5" as="geometry" />
        </mxCell>
        <mxCell id="NoCVoIsP2FQB-OOEhX7j-15" value="&lt;span style=&quot;caret-color: rgb(44, 62, 80); color: rgb(44, 62, 80); font-family: -apple-system, BlinkMacSystemFont, &amp;quot;Segoe UI&amp;quot;, Roboto, Oxygen, Ubuntu, Cantarell, &amp;quot;Fira Sans&amp;quot;, &amp;quot;Droid Sans&amp;quot;, &amp;quot;Helvetica Neue&amp;quot;, sans-serif; font-size: 16px; text-align: start; text-size-adjust: auto; background-color: rgb(255, 255, 255);&quot;&gt;干预BeanFactory&lt;/span&gt;" style="whiteSpace=wrap;html=1;rounded=1;" vertex="1" parent="1">
          <mxGeometry x="375" y="96.25" width="185" height="55" as="geometry" />
        </mxCell>
        <mxCell id="NoCVoIsP2FQB-OOEhX7j-16" value="&lt;span style=&quot;font-weight: 600; caret-color: rgb(44, 62, 80); color: rgb(44, 62, 80); font-family: -apple-system, BlinkMacSystemFont, &amp;quot;Segoe UI&amp;quot;, Roboto, Oxygen, Ubuntu, Cantarell, &amp;quot;Fira Sans&amp;quot;, &amp;quot;Droid Sans&amp;quot;, &amp;quot;Helvetica Neue&amp;quot;, sans-serif; font-size: 16px; text-align: left; text-size-adjust: auto;&quot;&gt;@Configuration、&lt;/span&gt;&lt;span style=&quot;color: rgb(44, 62, 80); font-family: -apple-system, &amp;quot;system-ui&amp;quot;, &amp;quot;Segoe UI&amp;quot;, Roboto, Oxygen, Ubuntu, Cantarell, &amp;quot;Fira Sans&amp;quot;, &amp;quot;Droid Sans&amp;quot;, &amp;quot;Helvetica Neue&amp;quot;, sans-serif; font-size: 16px; font-weight: 600; text-align: left; caret-color: rgb(44, 62, 80);&quot;&gt;@ComponmentScan&lt;/span&gt;" style="whiteSpace=wrap;html=1;rounded=1;" vertex="1" parent="1">
          <mxGeometry x="1000" y="150" width="310" height="60" as="geometry" />
        </mxCell>
        <mxCell id="NoCVoIsP2FQB-OOEhX7j-23" value="" style="edgeStyle=orthogonalEdgeStyle;rounded=0;orthogonalLoop=1;jettySize=auto;html=1;" edge="1" parent="1" source="NoCVoIsP2FQB-OOEhX7j-20" target="NoCVoIsP2FQB-OOEhX7j-22">
          <mxGeometry relative="1" as="geometry" />
        </mxCell>
        <mxCell id="NoCVoIsP2FQB-OOEhX7j-20" value="&lt;strong style=&quot;font-weight: 600; caret-color: rgb(44, 62, 80); color: rgb(44, 62, 80); font-family: -apple-system, BlinkMacSystemFont, &amp;quot;Segoe UI&amp;quot;, Roboto, Oxygen, Ubuntu, Cantarell, &amp;quot;Fira Sans&amp;quot;, &amp;quot;Droid Sans&amp;quot;, &amp;quot;Helvetica Neue&amp;quot;, sans-serif; font-size: 16px; font-style: normal; font-variant-caps: normal; letter-spacing: normal; text-align: left; text-indent: 0px; text-transform: none; word-spacing: 0px; text-size-adjust: auto; -webkit-text-stroke-width: 0px; text-decoration: none;&quot;&gt;AutowiredAnnotationBeanPostProcessor&lt;/strong&gt;" style="whiteSpace=wrap;html=1;rounded=1;" vertex="1" parent="1">
          <mxGeometry x="620" y="230" width="330" height="60" as="geometry" />
        </mxCell>
        <mxCell id="NoCVoIsP2FQB-OOEhX7j-22" value="&lt;span style=&quot;font-weight: 600; caret-color: rgb(44, 62, 80); color: rgb(44, 62, 80); font-family: -apple-system, BlinkMacSystemFont, &amp;quot;Segoe UI&amp;quot;, Roboto, Oxygen, Ubuntu, Cantarell, &amp;quot;Fira Sans&amp;quot;, &amp;quot;Droid Sans&amp;quot;, &amp;quot;Helvetica Neue&amp;quot;, sans-serif; font-size: 16px; text-align: left; text-size-adjust: auto;&quot;&gt;@Autowired、&lt;/span&gt;&lt;span style=&quot;font-weight: 600; caret-color: rgb(44, 62, 80); color: rgb(44, 62, 80); font-family: -apple-system, BlinkMacSystemFont, &amp;quot;Segoe UI&amp;quot;, Roboto, Oxygen, Ubuntu, Cantarell, &amp;quot;Fira Sans&amp;quot;, &amp;quot;Droid Sans&amp;quot;, &amp;quot;Helvetica Neue&amp;quot;, sans-serif; font-size: 16px; text-align: left; text-size-adjust: auto;&quot;&gt;@Value&lt;/span&gt;" style="whiteSpace=wrap;html=1;rounded=1;" vertex="1" parent="1">
          <mxGeometry x="1020" y="230" width="250" height="60" as="geometry" />
        </mxCell>
        <mxCell id="NoCVoIsP2FQB-OOEhX7j-24" value="&lt;strong style=&quot;font-weight: 600; caret-color: rgb(44, 62, 80); color: rgb(44, 62, 80); font-family: -apple-system, BlinkMacSystemFont, &amp;quot;Segoe UI&amp;quot;, Roboto, Oxygen, Ubuntu, Cantarell, &amp;quot;Fira Sans&amp;quot;, &amp;quot;Droid Sans&amp;quot;, &amp;quot;Helvetica Neue&amp;quot;, sans-serif; font-size: 16px; font-style: normal; font-variant-caps: normal; letter-spacing: normal; text-align: left; text-indent: 0px; text-transform: none; word-spacing: 0px; text-size-adjust: auto; -webkit-text-stroke-width: 0px; text-decoration: none;&quot;&gt;CommonAnnotationBeanPostProcessor&lt;/strong&gt;" style="whiteSpace=wrap;html=1;rounded=1;" vertex="1" parent="1">
          <mxGeometry x="620" y="330" width="330" height="50" as="geometry" />
        </mxCell>
        <mxCell id="NoCVoIsP2FQB-OOEhX7j-26" value="" style="edgeStyle=orthogonalEdgeStyle;rounded=0;orthogonalLoop=1;jettySize=auto;html=1;" edge="1" parent="1" target="NoCVoIsP2FQB-OOEhX7j-27">
          <mxGeometry relative="1" as="geometry">
            <mxPoint x="950" y="350" as="sourcePoint" />
          </mxGeometry>
        </mxCell>
        <mxCell id="NoCVoIsP2FQB-OOEhX7j-27" value="&lt;span style=&quot;font-weight: 600; caret-color: rgb(44, 62, 80); color: rgb(44, 62, 80); font-family: -apple-system, BlinkMacSystemFont, &amp;quot;Segoe UI&amp;quot;, Roboto, Oxygen, Ubuntu, Cantarell, &amp;quot;Fira Sans&amp;quot;, &amp;quot;Droid Sans&amp;quot;, &amp;quot;Helvetica Neue&amp;quot;, sans-serif; font-size: 16px; text-align: left; text-size-adjust: auto;&quot;&gt;@Resource、&lt;/span&gt;&lt;span style=&quot;font-weight: 600; caret-color: rgb(44, 62, 80); color: rgb(44, 62, 80); font-family: -apple-system, BlinkMacSystemFont, &amp;quot;Segoe UI&amp;quot;, Roboto, Oxygen, Ubuntu, Cantarell, &amp;quot;Fira Sans&amp;quot;, &amp;quot;Droid Sans&amp;quot;, &amp;quot;Helvetica Neue&amp;quot;, sans-serif; font-size: 16px; text-align: left; text-size-adjust: auto;&quot;&gt;@PostConstruct&lt;/span&gt;" style="whiteSpace=wrap;html=1;rounded=1;" vertex="1" parent="1">
          <mxGeometry x="1020" y="320" width="250" height="60" as="geometry" />
        </mxCell>
        <mxCell id="NoCVoIsP2FQB-OOEhX7j-28" value="&lt;span style=&quot;caret-color: rgb(44, 62, 80); color: rgb(44, 62, 80); font-family: -apple-system, BlinkMacSystemFont, &amp;quot;Segoe UI&amp;quot;, Roboto, Oxygen, Ubuntu, Cantarell, &amp;quot;Fira Sans&amp;quot;, &amp;quot;Droid Sans&amp;quot;, &amp;quot;Helvetica Neue&amp;quot;, sans-serif; font-size: 16px; text-align: left; text-size-adjust: auto; background-color: rgb(255, 255, 255);&quot;&gt;EventListenerMethodProcessor、&lt;br&gt;&lt;span style=&quot;font-family: -apple-system, BlinkMacSystemFont, &amp;quot;Segoe UI&amp;quot;, Roboto, Oxygen, Ubuntu, Cantarell, &amp;quot;Fira Sans&amp;quot;, &amp;quot;Droid Sans&amp;quot;, &amp;quot;Helvetica Neue&amp;quot;, sans-serif; background-color: initial;&quot;&gt;DefaultEventListenerFactory&lt;/span&gt;&lt;br&gt;&lt;/span&gt;" style="whiteSpace=wrap;html=1;rounded=1;" vertex="1" parent="1">
          <mxGeometry x="620" y="410" width="330" height="80" as="geometry" />
        </mxCell>
        <mxCell id="NoCVoIsP2FQB-OOEhX7j-31" value="容器刷新过程" style="rounded=1;whiteSpace=wrap;html=1;fontSize=14;" vertex="1" parent="1">
          <mxGeometry x="90" y="950" width="120" height="60" as="geometry" />
        </mxCell>
        <mxCell id="NoCVoIsP2FQB-OOEhX7j-34" value="" style="edgeStyle=orthogonalEdgeStyle;rounded=0;orthogonalLoop=1;jettySize=auto;html=1;fontSize=14;" edge="1" parent="1" source="NoCVoIsP2FQB-OOEhX7j-32" target="NoCVoIsP2FQB-OOEhX7j-33">
          <mxGeometry relative="1" as="geometry" />
        </mxCell>
        <mxCell id="NoCVoIsP2FQB-OOEhX7j-32" value="&lt;span style=&quot;background-color: rgb(43, 43, 43); color: rgb(169, 183, 198); font-family: &amp;quot;JetBrains Mono&amp;quot;, monospace; font-size: 14px;&quot;&gt;prepareRefresh()&lt;br style=&quot;font-size: 14px;&quot;&gt;&lt;/span&gt;&lt;br style=&quot;font-size: 14px;&quot;&gt;Spring应用上下文启动准备阶段" style="rounded=1;whiteSpace=wrap;html=1;fontSize=14;" vertex="1" parent="1">
          <mxGeometry x="455" y="870" width="300" height="100" as="geometry" />
        </mxCell>
        <mxCell id="NoCVoIsP2FQB-OOEhX7j-38" value="" style="edgeStyle=orthogonalEdgeStyle;rounded=0;orthogonalLoop=1;jettySize=auto;html=1;fontSize=14;" edge="1" parent="1" source="NoCVoIsP2FQB-OOEhX7j-33" target="NoCVoIsP2FQB-OOEhX7j-37">
          <mxGeometry relative="1" as="geometry" />
        </mxCell>
        <mxCell id="NoCVoIsP2FQB-OOEhX7j-33" value="&lt;font style=&quot;font-size: 14px;&quot;&gt;&lt;span style=&quot;background-color: rgb(43, 43, 43); font-size: 14px;&quot;&gt;&lt;font face=&quot;JetBrains Mono, monospace&quot; color=&quot;#a9b7c6&quot; style=&quot;font-size: 14px;&quot;&gt;&lt;span style=&quot;font-size: 14px;&quot;&gt;ConfigurableListableBeanFactory beanFactory = obtainFreshBeanFactory()&lt;/span&gt;&lt;/font&gt;&lt;font face=&quot;JetBrains Mono, monospace&quot; color=&quot;#cc7832&quot; style=&quot;font-size: 14px;&quot;&gt;&lt;span style=&quot;font-size: 14px;&quot;&gt;&lt;br style=&quot;font-size: 14px;&quot;&gt;&lt;/span&gt;&lt;/font&gt;&lt;/span&gt;&lt;font face=&quot;JetBrains Mono, monospace&quot; color=&quot;#cc7832&quot; style=&quot;font-size: 14px;&quot;&gt;&lt;span style=&quot;font-size: 14px;&quot;&gt;&lt;br style=&quot;font-size: 14px;&quot;&gt;&lt;/span&gt;&lt;/font&gt;&lt;span style=&quot;font-size: 14px;&quot;&gt;BeanFactory创建阶段&lt;/span&gt;&lt;/font&gt;" style="whiteSpace=wrap;html=1;rounded=1;fontSize=14;" vertex="1" parent="1">
          <mxGeometry x="290" y="990" width="630" height="70" as="geometry" />
        </mxCell>
        <mxCell id="NoCVoIsP2FQB-OOEhX7j-45" value="" style="edgeStyle=orthogonalEdgeStyle;rounded=0;orthogonalLoop=1;jettySize=auto;html=1;fontSize=14;" edge="1" parent="1" source="NoCVoIsP2FQB-OOEhX7j-37" target="NoCVoIsP2FQB-OOEhX7j-44">
          <mxGeometry relative="1" as="geometry" />
        </mxCell>
        <mxCell id="NoCVoIsP2FQB-OOEhX7j-37" value="&lt;pre style=&quot;background-color:#2b2b2b;color:#a9b7c6;font-family:&#39;JetBrains Mono&#39;,monospace;font-size:10.5pt;&quot;&gt;prepareBeanFactory(beanFactory)&lt;/pre&gt;BeanFactory准备阶段" style="whiteSpace=wrap;html=1;rounded=1;fontSize=14;" vertex="1" parent="1">
          <mxGeometry x="445" y="1110" width="320" height="70" as="geometry" />
        </mxCell>
        <mxCell id="NoCVoIsP2FQB-OOEhX7j-48" value="" style="edgeStyle=orthogonalEdgeStyle;rounded=0;orthogonalLoop=1;jettySize=auto;html=1;fontSize=14;" edge="1" parent="1" source="NoCVoIsP2FQB-OOEhX7j-44" target="NoCVoIsP2FQB-OOEhX7j-47">
          <mxGeometry relative="1" as="geometry" />
        </mxCell>
        <mxCell id="NoCVoIsP2FQB-OOEhX7j-44" value="&lt;span style=&quot;background-color: rgb(43, 43, 43); color: rgb(169, 183, 198); font-family: &amp;quot;JetBrains Mono&amp;quot;, monospace; font-size: 10.5pt;&quot;&gt;postProcessBeanFactory(beanFactory)&lt;br&gt;&lt;/span&gt;&lt;br&gt;允许在上下文子类中对 BeanFactory进行后置处理。" style="whiteSpace=wrap;html=1;fontSize=14;rounded=1;" vertex="1" parent="1">
          <mxGeometry x="422.5" y="1230" width="365" height="75" as="geometry" />
        </mxCell>
        <mxCell id="NoCVoIsP2FQB-OOEhX7j-50" value="" style="edgeStyle=orthogonalEdgeStyle;rounded=0;orthogonalLoop=1;jettySize=auto;html=1;fontSize=14;" edge="1" parent="1" source="NoCVoIsP2FQB-OOEhX7j-47" target="NoCVoIsP2FQB-OOEhX7j-49">
          <mxGeometry relative="1" as="geometry" />
        </mxCell>
        <mxCell id="NoCVoIsP2FQB-OOEhX7j-47" value="&lt;span style=&quot;background-color: rgb(43, 43, 43); color: rgb(169, 183, 198); font-family: &amp;quot;JetBrains Mono&amp;quot;, monospace; font-size: 10.5pt;&quot;&gt;invokeBeanFactoryPostProcessors(beanFactory)&lt;/span&gt;&lt;br&gt;&lt;br&gt;调用BeanFactory后置处理" style="whiteSpace=wrap;html=1;fontSize=14;rounded=1;" vertex="1" parent="1">
          <mxGeometry x="388.75" y="1360" width="432.5" height="90" as="geometry" />
        </mxCell>
        <mxCell id="NoCVoIsP2FQB-OOEhX7j-52" value="" style="edgeStyle=orthogonalEdgeStyle;rounded=0;orthogonalLoop=1;jettySize=auto;html=1;fontSize=14;" edge="1" parent="1" source="NoCVoIsP2FQB-OOEhX7j-49" target="NoCVoIsP2FQB-OOEhX7j-51">
          <mxGeometry relative="1" as="geometry" />
        </mxCell>
        <mxCell id="NoCVoIsP2FQB-OOEhX7j-49" value="&lt;pre style=&quot;background-color:#2b2b2b;color:#a9b7c6;font-family:&#39;JetBrains Mono&#39;,monospace;font-size:10.5pt;&quot;&gt;registerBeanPostProcessors(beanFactory)&lt;/pre&gt;BeanFactory注册BeanPostProcessor" style="whiteSpace=wrap;html=1;fontSize=14;rounded=1;" vertex="1" parent="1">
          <mxGeometry x="392.5" y="1510" width="425" height="65" as="geometry" />
        </mxCell>
        <mxCell id="NoCVoIsP2FQB-OOEhX7j-54" value="" style="edgeStyle=orthogonalEdgeStyle;rounded=0;orthogonalLoop=1;jettySize=auto;html=1;fontSize=14;" edge="1" parent="1" source="NoCVoIsP2FQB-OOEhX7j-51" target="NoCVoIsP2FQB-OOEhX7j-53">
          <mxGeometry relative="1" as="geometry" />
        </mxCell>
        <mxCell id="NoCVoIsP2FQB-OOEhX7j-51" value="&lt;pre style=&quot;background-color:#2b2b2b;color:#a9b7c6;font-family:&#39;JetBrains Mono&#39;,monospace;font-size:10.5pt;&quot;&gt;initMessageSource()&lt;/pre&gt;初始化内置Bean：MessageSource&lt;br&gt;" style="whiteSpace=wrap;html=1;fontSize=14;rounded=1;" vertex="1" parent="1">
          <mxGeometry x="402.5" y="1620" width="405" height="70" as="geometry" />
        </mxCell>
        <mxCell id="NoCVoIsP2FQB-OOEhX7j-56" value="" style="edgeStyle=orthogonalEdgeStyle;rounded=0;orthogonalLoop=1;jettySize=auto;html=1;fontSize=14;" edge="1" parent="1" source="NoCVoIsP2FQB-OOEhX7j-53" target="NoCVoIsP2FQB-OOEhX7j-55">
          <mxGeometry relative="1" as="geometry" />
        </mxCell>
        <mxCell id="NoCVoIsP2FQB-OOEhX7j-53" value="&lt;pre style=&quot;background-color:#2b2b2b;color:#a9b7c6;font-family:&#39;JetBrains Mono&#39;,monospace;font-size:10.5pt;&quot;&gt;initApplicationEventMulticaster()&lt;/pre&gt;初始化内置Bean：Spring事件广播器" style="whiteSpace=wrap;html=1;fontSize=14;rounded=1;" vertex="1" parent="1">
          <mxGeometry x="401.25" y="1740" width="407.5" height="70" as="geometry" />
        </mxCell>
        <mxCell id="NoCVoIsP2FQB-OOEhX7j-58" value="" style="edgeStyle=orthogonalEdgeStyle;rounded=0;orthogonalLoop=1;jettySize=auto;html=1;fontSize=14;" edge="1" parent="1" source="NoCVoIsP2FQB-OOEhX7j-55" target="NoCVoIsP2FQB-OOEhX7j-57">
          <mxGeometry relative="1" as="geometry" />
        </mxCell>
        <mxCell id="NoCVoIsP2FQB-OOEhX7j-55" value="&lt;pre style=&quot;background-color:#2b2b2b;color:#a9b7c6;font-family:&#39;JetBrains Mono&#39;,monospace;font-size:10.5pt;&quot;&gt;onRefresh()&lt;/pre&gt;Spring上下文刷新&lt;br&gt;" style="whiteSpace=wrap;html=1;fontSize=14;rounded=1;" vertex="1" parent="1">
          <mxGeometry x="392.5" y="1860" width="425" height="75" as="geometry" />
        </mxCell>
        <mxCell id="NoCVoIsP2FQB-OOEhX7j-60" value="" style="edgeStyle=orthogonalEdgeStyle;rounded=0;orthogonalLoop=1;jettySize=auto;html=1;fontSize=14;" edge="1" parent="1" source="NoCVoIsP2FQB-OOEhX7j-57" target="NoCVoIsP2FQB-OOEhX7j-59">
          <mxGeometry relative="1" as="geometry" />
        </mxCell>
        <mxCell id="NoCVoIsP2FQB-OOEhX7j-57" value="&lt;pre style=&quot;background-color:#2b2b2b;color:#a9b7c6;font-family:&#39;JetBrains Mono&#39;,monospace;font-size:10.5pt;&quot;&gt;registerListeners()&lt;/pre&gt;监听器注册" style="whiteSpace=wrap;html=1;fontSize=14;rounded=1;" vertex="1" parent="1">
          <mxGeometry x="428.75" y="1970" width="352.5" height="70" as="geometry" />
        </mxCell>
        <mxCell id="NoCVoIsP2FQB-OOEhX7j-62" value="" style="edgeStyle=orthogonalEdgeStyle;rounded=0;orthogonalLoop=1;jettySize=auto;html=1;fontSize=14;" edge="1" parent="1" source="NoCVoIsP2FQB-OOEhX7j-59" target="NoCVoIsP2FQB-OOEhX7j-61">
          <mxGeometry relative="1" as="geometry" />
        </mxCell>
        <mxCell id="NoCVoIsP2FQB-OOEhX7j-59" value="&lt;pre style=&quot;background-color:#2b2b2b;color:#a9b7c6;font-family:&#39;JetBrains Mono&#39;,monospace;font-size:10.5pt;&quot;&gt;finishBeanFactoryInitialization(beanFactory)&lt;/pre&gt;BeanFacotry初始化完成阶段" style="whiteSpace=wrap;html=1;fontSize=14;rounded=1;" vertex="1" parent="1">
          <mxGeometry x="416.25" y="2080" width="377.5" height="80" as="geometry" />
        </mxCell>
        <mxCell id="NoCVoIsP2FQB-OOEhX7j-61" value="&lt;pre style=&quot;background-color:#2b2b2b;color:#a9b7c6;font-family:&#39;JetBrains Mono&#39;,monospace;font-size:10.5pt;&quot;&gt;finishRefresh()&lt;/pre&gt;启动完成阶段" style="whiteSpace=wrap;html=1;fontSize=14;rounded=1;" vertex="1" parent="1">
          <mxGeometry x="412" y="2200" width="386" height="80" as="geometry" />
        </mxCell>
      </root>
    </mxGraphModel>
  </diagram>
</mxfile>
